# xmcd
#
# Track frame offsets:
#	150
#	15375
#	26925
#	45954
#	59341
#	76537
#	91096
#	117205
#	144872
#	161188
#	181602
#	202752
#
# Disc length: 2848 seconds
#
# Revision: 1
# Processed by: cddbd v1.5.2PL0 Copyright (c) Steve Scherf et al.
# Submitted via: audiograbber 1.83.01
#
DISCID=800b1e0c
DTITLE=Diversen Artiesten - Visbakfestival 2002
DYEAR=2002
DGENRE=pop
TTITLE0=The Tourist - Dictionary
TTITLE1=The Tourist - In front
TTITLE2=The Beatnik l.i.o.n.s. - Come undone
TTITLE3=The Beatnik l.i.o.n.s. - something like a circus or a sewer
TTITLE4=Bluelighter - Morning migraine
TTITLE5=Bluelighter - Mrs. Bartender
TTITLE6=Away - You tell me
TTITLE7=Away - Flower
TTITLE8=The Sheer - Something new
TTITLE9=13 Curves - Overkill
TTITLE10=13 Curves - Square vision
TTITLE11=The Einzelganger Collective - Lost within my heart
EXTD=
EXTT0=
EXTT1=
EXTT2=
EXTT3=
EXTT4=
EXTT5=
EXTT6=
EXTT7=
EXTT8=
EXTT9=
EXTT10=
EXTT11=
PLAYORDER=
